<mxfile host="app.diagrams.net" modified="2022-01-25T17:00:28.740Z" agent="5.0 (Windows NT 10.0; Win64; x64) AppleWebKit/537.36 (KHTML, like Gecko) Chrome/97.0.4692.99 Safari/537.36" etag="pkFSLmahnySGtM4XsvoW" version="16.4.5" type="github">
  <diagram id="x1rQlzW42sjCAib7o9QV" name="Page-1">
    <mxGraphModel dx="1059" dy="1846" grid="1" gridSize="10" guides="1" tooltips="1" connect="1" arrows="1" fold="1" page="1" pageScale="1" pageWidth="850" pageHeight="1100" math="0" shadow="0">
      <root>
        <mxCell id="0" />
        <mxCell id="1" parent="0" />
        <mxCell id="4vt9VN0zpXeL7rYxbLUE-1" value="Product" style="swimlane;fontStyle=1;align=center;verticalAlign=top;childLayout=stackLayout;horizontal=1;startSize=26;horizontalStack=0;resizeParent=1;resizeParentMax=0;resizeLast=0;collapsible=1;marginBottom=0;" parent="1" vertex="1">
          <mxGeometry x="40" y="-1040" width="230" height="298" as="geometry" />
        </mxCell>
        <mxCell id="4vt9VN0zpXeL7rYxbLUE-2" value="+ id: int&#xa;+ name: String&#xa;+ category: String&#xa;+ salesPrice: float&#xa;+ cost: float&#xa;+quantity: int&#xa;+active: boolean" style="text;strokeColor=none;fillColor=none;align=left;verticalAlign=top;spacingLeft=4;spacingRight=4;overflow=hidden;rotatable=0;points=[[0,0.5],[1,0.5]];portConstraint=eastwest;" parent="4vt9VN0zpXeL7rYxbLUE-1" vertex="1">
          <mxGeometry y="26" width="230" height="164" as="geometry" />
        </mxCell>
        <mxCell id="4vt9VN0zpXeL7rYxbLUE-3" value="" style="line;strokeWidth=1;fillColor=none;align=left;verticalAlign=middle;spacingTop=-1;spacingLeft=3;spacingRight=3;rotatable=0;labelPosition=right;points=[];portConstraint=eastwest;" parent="4vt9VN0zpXeL7rYxbLUE-1" vertex="1">
          <mxGeometry y="190" width="230" height="8" as="geometry" />
        </mxCell>
        <mxCell id="4vt9VN0zpXeL7rYxbLUE-4" value="+ getProfitOrLoss(): float&#xa;+ activate(): void&#xa;+ deactivate(): void&#xa;+isBelowThreshold(): boolean" style="text;strokeColor=none;fillColor=none;align=left;verticalAlign=top;spacingLeft=4;spacingRight=4;overflow=hidden;rotatable=0;points=[[0,0.5],[1,0.5]];portConstraint=eastwest;" parent="4vt9VN0zpXeL7rYxbLUE-1" vertex="1">
          <mxGeometry y="198" width="230" height="100" as="geometry" />
        </mxCell>
        <mxCell id="4vt9VN0zpXeL7rYxbLUE-5" value="Order" style="swimlane;fontStyle=1;align=center;verticalAlign=top;childLayout=stackLayout;horizontal=1;startSize=26;horizontalStack=0;resizeParent=1;resizeParentMax=0;resizeLast=0;collapsible=1;marginBottom=0;" parent="1" vertex="1">
          <mxGeometry x="390" y="-1040" width="230" height="174" as="geometry" />
        </mxCell>
        <mxCell id="4vt9VN0zpXeL7rYxbLUE-6" value="+ id: int&#xa;+ vendor: Vendor&#xa;+ date: String&#xa;+ orderProduct: Product&#xa;+ orderedQuantity: int&#xa;+ amountPaid: float" style="text;strokeColor=none;fillColor=none;align=left;verticalAlign=top;spacingLeft=4;spacingRight=4;overflow=hidden;rotatable=0;points=[[0,0.5],[1,0.5]];portConstraint=eastwest;" parent="4vt9VN0zpXeL7rYxbLUE-5" vertex="1">
          <mxGeometry y="26" width="230" height="114" as="geometry" />
        </mxCell>
        <mxCell id="4vt9VN0zpXeL7rYxbLUE-7" value="" style="line;strokeWidth=1;fillColor=none;align=left;verticalAlign=middle;spacingTop=-1;spacingLeft=3;spacingRight=3;rotatable=0;labelPosition=right;points=[];portConstraint=eastwest;" parent="4vt9VN0zpXeL7rYxbLUE-5" vertex="1">
          <mxGeometry y="140" width="230" height="8" as="geometry" />
        </mxCell>
        <mxCell id="4vt9VN0zpXeL7rYxbLUE-8" value="- updateVendorCredit(): void" style="text;strokeColor=none;fillColor=none;align=left;verticalAlign=top;spacingLeft=4;spacingRight=4;overflow=hidden;rotatable=0;points=[[0,0.5],[1,0.5]];portConstraint=eastwest;" parent="4vt9VN0zpXeL7rYxbLUE-5" vertex="1">
          <mxGeometry y="148" width="230" height="26" as="geometry" />
        </mxCell>
        <mxCell id="4vt9VN0zpXeL7rYxbLUE-9" value="Customer" style="swimlane;fontStyle=1;align=center;verticalAlign=top;childLayout=stackLayout;horizontal=1;startSize=26;horizontalStack=0;resizeParent=1;resizeParentMax=0;resizeLast=0;collapsible=1;marginBottom=0;" parent="1" vertex="1">
          <mxGeometry x="1160" y="-1040" width="200" height="170" as="geometry" />
        </mxCell>
        <mxCell id="4vt9VN0zpXeL7rYxbLUE-10" value="&#xa;+ transactionCount: int" style="text;strokeColor=none;fillColor=none;align=left;verticalAlign=top;spacingLeft=4;spacingRight=4;overflow=hidden;rotatable=0;points=[[0,0.5],[1,0.5]];portConstraint=eastwest;" parent="4vt9VN0zpXeL7rYxbLUE-9" vertex="1">
          <mxGeometry y="26" width="200" height="64" as="geometry" />
        </mxCell>
        <mxCell id="4vt9VN0zpXeL7rYxbLUE-11" value="" style="line;strokeWidth=1;fillColor=none;align=left;verticalAlign=middle;spacingTop=-1;spacingLeft=3;spacingRight=3;rotatable=0;labelPosition=right;points=[];portConstraint=eastwest;" parent="4vt9VN0zpXeL7rYxbLUE-9" vertex="1">
          <mxGeometry y="90" width="200" height="8" as="geometry" />
        </mxCell>
        <mxCell id="4vt9VN0zpXeL7rYxbLUE-12" value="&#xa;+ getTransactionCount(): int&#xa;+ calculateDiscount(): float" style="text;strokeColor=none;fillColor=none;align=left;verticalAlign=top;spacingLeft=4;spacingRight=4;overflow=hidden;rotatable=0;points=[[0,0.5],[1,0.5]];portConstraint=eastwest;" parent="4vt9VN0zpXeL7rYxbLUE-9" vertex="1">
          <mxGeometry y="98" width="200" height="72" as="geometry" />
        </mxCell>
        <mxCell id="4vt9VN0zpXeL7rYxbLUE-13" value="Vendor" style="swimlane;fontStyle=1;align=center;verticalAlign=top;childLayout=stackLayout;horizontal=1;startSize=26;horizontalStack=0;resizeParent=1;resizeParentMax=0;resizeLast=0;collapsible=1;marginBottom=0;" parent="1" vertex="1">
          <mxGeometry x="780" y="-1040" width="265" height="296" as="geometry" />
        </mxCell>
        <mxCell id="4vt9VN0zpXeL7rYxbLUE-14" value="+ id: int&#xa;+ vendorName: String&#xa;+ credit: float&#xa;+ product: Product[0...100]&#xa;+ orders: Orders[0...100]" style="text;strokeColor=none;fillColor=none;align=left;verticalAlign=top;spacingLeft=4;spacingRight=4;overflow=hidden;rotatable=0;points=[[0,0.5],[1,0.5]];portConstraint=eastwest;" parent="4vt9VN0zpXeL7rYxbLUE-13" vertex="1">
          <mxGeometry y="26" width="265" height="134" as="geometry" />
        </mxCell>
        <mxCell id="4vt9VN0zpXeL7rYxbLUE-15" value="" style="line;strokeWidth=1;fillColor=none;align=left;verticalAlign=middle;spacingTop=-1;spacingLeft=3;spacingRight=3;rotatable=0;labelPosition=right;points=[];portConstraint=eastwest;" parent="4vt9VN0zpXeL7rYxbLUE-13" vertex="1">
          <mxGeometry y="160" width="265" height="8" as="geometry" />
        </mxCell>
        <mxCell id="4vt9VN0zpXeL7rYxbLUE-16" value="&#xa;+ checkDue(): float&#xa;+fetchProductById(id: int): Product&#xa;+ fetchProductByName(name: String): Product&#xa;" style="text;strokeColor=none;fillColor=none;align=left;verticalAlign=top;spacingLeft=4;spacingRight=4;overflow=hidden;rotatable=0;points=[[0,0.5],[1,0.5]];portConstraint=eastwest;" parent="4vt9VN0zpXeL7rYxbLUE-13" vertex="1">
          <mxGeometry y="168" width="265" height="128" as="geometry" />
        </mxCell>
        <mxCell id="4vt9VN0zpXeL7rYxbLUE-45" value="Bussiness Partner" style="swimlane;fontStyle=1;align=center;verticalAlign=top;childLayout=stackLayout;horizontal=1;startSize=26;horizontalStack=0;resizeParent=1;resizeParentMax=0;resizeLast=0;collapsible=1;marginBottom=0;labelBackgroundColor=none;labelBorderColor=none;fontSize=13;" parent="1" vertex="1">
          <mxGeometry x="440" y="-690" width="220" height="210" as="geometry" />
        </mxCell>
        <mxCell id="4vt9VN0zpXeL7rYxbLUE-46" value="+ id: int&#xa;+ contact : Contact&#xa;+ address: Address" style="text;strokeColor=none;fillColor=none;align=left;verticalAlign=top;spacingLeft=4;spacingRight=4;overflow=hidden;rotatable=0;points=[[0,0.5],[1,0.5]];portConstraint=eastwest;labelBackgroundColor=none;labelBorderColor=none;fontSize=13;" parent="4vt9VN0zpXeL7rYxbLUE-45" vertex="1">
          <mxGeometry y="26" width="220" height="104" as="geometry" />
        </mxCell>
        <mxCell id="4vt9VN0zpXeL7rYxbLUE-47" value="" style="line;strokeWidth=1;fillColor=none;align=left;verticalAlign=middle;spacingTop=-1;spacingLeft=3;spacingRight=3;rotatable=0;labelPosition=right;points=[];portConstraint=eastwest;labelBackgroundColor=none;labelBorderColor=none;fontSize=13;" parent="4vt9VN0zpXeL7rYxbLUE-45" vertex="1">
          <mxGeometry y="130" width="220" height="8" as="geometry" />
        </mxCell>
        <mxCell id="4vt9VN0zpXeL7rYxbLUE-48" value="+ getContact(): String&#xa;+ getAddress(): String" style="text;strokeColor=none;fillColor=none;align=left;verticalAlign=top;spacingLeft=4;spacingRight=4;overflow=hidden;rotatable=0;points=[[0,0.5],[1,0.5]];portConstraint=eastwest;labelBackgroundColor=none;labelBorderColor=none;fontSize=13;" parent="4vt9VN0zpXeL7rYxbLUE-45" vertex="1">
          <mxGeometry y="138" width="220" height="72" as="geometry" />
        </mxCell>
        <mxCell id="x_GX01w57GS1Q3rRgQEp-4" value="Address" style="swimlane;fontStyle=1;align=center;verticalAlign=top;childLayout=stackLayout;horizontal=1;startSize=26;horizontalStack=0;resizeParent=1;resizeParentMax=0;resizeLast=0;collapsible=1;marginBottom=0;" vertex="1" parent="1">
          <mxGeometry x="750" y="-675" width="300" height="180" as="geometry" />
        </mxCell>
        <mxCell id="x_GX01w57GS1Q3rRgQEp-5" value="+ Street: String&#xa;+ City: String&#xa;+State: String" style="text;strokeColor=none;fillColor=none;align=left;verticalAlign=top;spacingLeft=4;spacingRight=4;overflow=hidden;rotatable=0;points=[[0,0.5],[1,0.5]];portConstraint=eastwest;" vertex="1" parent="x_GX01w57GS1Q3rRgQEp-4">
          <mxGeometry y="26" width="300" height="74" as="geometry" />
        </mxCell>
        <mxCell id="x_GX01w57GS1Q3rRgQEp-6" value="" style="line;strokeWidth=1;fillColor=none;align=left;verticalAlign=middle;spacingTop=-1;spacingLeft=3;spacingRight=3;rotatable=0;labelPosition=right;points=[];portConstraint=eastwest;" vertex="1" parent="x_GX01w57GS1Q3rRgQEp-4">
          <mxGeometry y="100" width="300" height="8" as="geometry" />
        </mxCell>
        <mxCell id="x_GX01w57GS1Q3rRgQEp-7" value="+ getAddressDetails(): String&#xa;+ updateAddressDetail(AddressDetails: String): void" style="text;strokeColor=none;fillColor=none;align=left;verticalAlign=top;spacingLeft=4;spacingRight=4;overflow=hidden;rotatable=0;points=[[0,0.5],[1,0.5]];portConstraint=eastwest;" vertex="1" parent="x_GX01w57GS1Q3rRgQEp-4">
          <mxGeometry y="108" width="300" height="72" as="geometry" />
        </mxCell>
        <mxCell id="x_GX01w57GS1Q3rRgQEp-8" value="Contact" style="swimlane;fontStyle=1;align=center;verticalAlign=top;childLayout=stackLayout;horizontal=1;startSize=26;horizontalStack=0;resizeParent=1;resizeParentMax=0;resizeLast=0;collapsible=1;marginBottom=0;" vertex="1" parent="1">
          <mxGeometry x="40" y="-665" width="295" height="170" as="geometry" />
        </mxCell>
        <mxCell id="x_GX01w57GS1Q3rRgQEp-9" value="+ Name: String&#xa;+ Phone: String&#xa;+ Email: String" style="text;strokeColor=none;fillColor=none;align=left;verticalAlign=top;spacingLeft=4;spacingRight=4;overflow=hidden;rotatable=0;points=[[0,0.5],[1,0.5]];portConstraint=eastwest;" vertex="1" parent="x_GX01w57GS1Q3rRgQEp-8">
          <mxGeometry y="26" width="295" height="74" as="geometry" />
        </mxCell>
        <mxCell id="x_GX01w57GS1Q3rRgQEp-10" value="" style="line;strokeWidth=1;fillColor=none;align=left;verticalAlign=middle;spacingTop=-1;spacingLeft=3;spacingRight=3;rotatable=0;labelPosition=right;points=[];portConstraint=eastwest;" vertex="1" parent="x_GX01w57GS1Q3rRgQEp-8">
          <mxGeometry y="100" width="295" height="8" as="geometry" />
        </mxCell>
        <mxCell id="x_GX01w57GS1Q3rRgQEp-11" value="+ getContactDetails(): String&#xa;+ updateContactDetails(contactdetails: String): void" style="text;strokeColor=none;fillColor=none;align=left;verticalAlign=top;spacingLeft=4;spacingRight=4;overflow=hidden;rotatable=0;points=[[0,0.5],[1,0.5]];portConstraint=eastwest;" vertex="1" parent="x_GX01w57GS1Q3rRgQEp-8">
          <mxGeometry y="108" width="295" height="62" as="geometry" />
        </mxCell>
        <mxCell id="x_GX01w57GS1Q3rRgQEp-12" value="" style="endArrow=diamondThin;endFill=1;endSize=24;html=1;rounded=0;entryX=0.022;entryY=0.814;entryDx=0;entryDy=0;entryPerimeter=0;" edge="1" parent="1" target="4vt9VN0zpXeL7rYxbLUE-46">
          <mxGeometry width="160" relative="1" as="geometry">
            <mxPoint x="330" y="-579" as="sourcePoint" />
            <mxPoint x="450" y="-576" as="targetPoint" />
          </mxGeometry>
        </mxCell>
        <mxCell id="x_GX01w57GS1Q3rRgQEp-14" value="1" style="edgeLabel;html=1;align=center;verticalAlign=middle;resizable=0;points=[];" vertex="1" connectable="0" parent="x_GX01w57GS1Q3rRgQEp-12">
          <mxGeometry x="-0.741" y="4" relative="1" as="geometry">
            <mxPoint y="-7" as="offset" />
          </mxGeometry>
        </mxCell>
        <mxCell id="x_GX01w57GS1Q3rRgQEp-13" value="" style="endArrow=diamondThin;endFill=1;endSize=24;html=1;rounded=0;entryX=1.005;entryY=0.645;entryDx=0;entryDy=0;entryPerimeter=0;exitX=0.012;exitY=0.704;exitDx=0;exitDy=0;exitPerimeter=0;" edge="1" parent="1" source="x_GX01w57GS1Q3rRgQEp-5" target="4vt9VN0zpXeL7rYxbLUE-46">
          <mxGeometry width="160" relative="1" as="geometry">
            <mxPoint x="600" y="-720" as="sourcePoint" />
            <mxPoint x="760" y="-720" as="targetPoint" />
          </mxGeometry>
        </mxCell>
        <mxCell id="x_GX01w57GS1Q3rRgQEp-15" value="1" style="edgeLabel;html=1;align=center;verticalAlign=middle;resizable=0;points=[];" vertex="1" connectable="0" parent="1">
          <mxGeometry x="354.7247941558662" y="-580.0441256536897" as="geometry">
            <mxPoint x="64" y="-10" as="offset" />
          </mxGeometry>
        </mxCell>
        <mxCell id="x_GX01w57GS1Q3rRgQEp-16" value="1" style="edgeLabel;html=1;align=center;verticalAlign=middle;resizable=0;points=[];" vertex="1" connectable="0" parent="1">
          <mxGeometry x="380.0047941558662" y="-570.0441256536897" as="geometry">
            <mxPoint x="300" y="-46" as="offset" />
          </mxGeometry>
        </mxCell>
        <mxCell id="x_GX01w57GS1Q3rRgQEp-17" value="1" style="edgeLabel;html=1;align=center;verticalAlign=middle;resizable=0;points=[];" vertex="1" connectable="0" parent="1">
          <mxGeometry x="370.0047941558662" y="-570.0441256536897" as="geometry">
            <mxPoint x="365" y="-48" as="offset" />
          </mxGeometry>
        </mxCell>
      </root>
    </mxGraphModel>
  </diagram>
</mxfile>
